<svg height="512" viewBox="0 0 60 60" width="512" xmlns="http://www.w3.org/2000/svg"><g id="Page-1" fill="none" fill-rule="evenodd"><g id="003---Cookies" fill-rule="nonzero"><path id="Shape" d="m59 9v32c0 2.209139-1.790861 4-4 4h-50c-2.209139 0-4-1.790861-4-4v-32z" fill="#f5f5f5"/><path id="Shape" d="m56 9v32c0 2.209139-1.790861 4-4 4h3c2.209139 0 4-1.790861 4-4v-32z" fill="#cfd8dc"/><path id="Shape" d="m59 5v4h-58v-4c0-2.209139 1.790861-4 4-4h50c2.209139 0 4 1.790861 4 4z" fill="#607d8b"/><path id="Shape" d="m55 1h-3c2.209139 0 4 1.790861 4 4v4h3v-4c0-2.209139-1.790861-4-4-4z" fill="#37474f"/><rect id="Rectangle-path" fill="#02a9f4" height="6" rx="3" width="20" x="7" y="24"/><path id="Shape" d="m24 24h-3c1.6568542 0 3 1.3431458 3 3s-1.3431458 3-3 3h3c1.6568542 0 3-1.3431458 3-3s-1.3431458-3-3-3z" fill="#0377bc"/><rect id="Rectangle-path" fill="#ffdc00" height="6" rx="3" width="20" x="33" y="24"/><path id="Shape" d="m28 47c-.0030556 2.3621818.6928141 4.6724692 2 6.64-2.9267936 4.4132779-8.3995947 6.3875327-13.4698017 4.8590879-5.070207-1.5284447-8.54003713-6.1985103-8.54003713-11.4940879s3.46983013-9.9656432 8.54003713-11.4940879c5.070207-1.5284448 10.5430081.44581 13.4698017 4.8590879-1.3128491 1.9611344-2.0093437 4.2700141-2 6.63z" fill="#91562d"/><path id="Shape" d="m30 40.37c-2.4949868-3.8075652-6.9464757-5.8544499-11.461-5.27 3.4531439.4408859 6.5425554 2.36515 8.461 5.27-1.3128491 1.9611344-2.0093437 4.2700141-2 6.63-.0030556 2.3621818.6928141 4.6724692 2 6.64-1.9258348 2.8960361-5.0126965 4.8148369-8.462 5.26 4.5123501.5839821 8.9623408-1.4581528 11.462-5.26-1.3071859-1.9675308-2.0030556-4.2778182-2-6.64-.0093437-2.3599859.6871509-4.6688656 2-6.63z" fill="#6d4122"/><circle id="Oval" cx="19" cy="42" fill="#37474f" r="2"/><circle id="Oval" cx="15" cy="49" fill="#37474f" r="2"/><circle id="Oval" cx="23" cy="52" fill="#37474f" r="2"/><path id="Shape" d="m51.98 47.67c-.3742533 6.4774794-5.829418 11.4843535-12.3151691 11.3031419s-11.65284-5.4848708-11.6648309-11.9731419c-.0093437-2.3599859.6871509-4.6688656 2-6.63 3.4431841-5.1957826 10.2910548-6.8903699 15.76-3.9-1.3523168.7719272-2.0298972 2.346138-1.6609807 3.8589278s1.6951215 2.5983475 3.2509807 2.6610722c-.2330032.4690881-.3528726.9862387-.35 1.51.0005764 1.1958903.6117085 2.3087087 1.6205518 2.950884 1.0088432.6421753 2.2757367.724807 3.3594482.219116z" fill="#a0522d"/><path id="Shape" d="m50.5 48c-1.9329966 0-3.5-1.5670034-3.5-3.5-.0028726-.5237613.1169968-1.0409119.35-1.51-1.5558592-.0627247-2.8820642-1.1482824-3.2509807-2.6610722s.3086639-3.0870006 1.6609807-3.8589278c-1.7648673-.9690299-3.7466067-1.4747864-5.76-1.47-.4882353.003929-.9757885.0373231-1.46.1 1.4805242.1880749 2.9122495.6538946 4.22 1.373-1.3523168.7719272-2.0298972 2.346138-1.6609807 3.8589278s1.6951215 2.5983475 3.2509807 2.6610722c-.232547.4681815-.352404.9842512-.35 1.507.0005764 1.1958903.6117085 2.3087087 1.6205518 2.950884 1.0088432.6421753 2.2757367.724807 3.3594482.219116-.3174265 5.7853578-4.7303405 10.5140814-10.48 11.23 3.3044468.4393887 6.6419365-.5246565 9.2031376-2.6583575 2.5612012-2.1337009 4.1121922-5.2421809 4.2768624-8.5716425-.4631541.2172315-.9684326.3298949-1.48.33z" fill="#783e22"/><circle id="Oval" cx="39" cy="42" fill="#37474f" r="2"/><circle id="Oval" cx="35" cy="49" fill="#37474f" r="2"/><circle id="Oval" cx="43" cy="52" fill="#37474f" r="2"/><circle id="Oval" cx="5" cy="5" fill="#f44335" r="1"/><circle id="Oval" cx="9" cy="5" fill="#ffdc00" r="1"/><circle id="Oval" cx="13" cy="5" fill="#60a917" r="1"/><g fill="#000"><path id="Shape" d="m27 6h6c.5522847 0 1-.44771525 1-1s-.4477153-1-1-1h-6c-.5522847 0-1 .44771525-1 1s.4477153 1 1 1z"/><path id="Shape" d="m44 6h11c.5522847 0 1-.44771525 1-1s-.4477153-1-1-1h-11c-.5522847 0-1 .44771525-1 1s.4477153 1 1 1z"/><path id="Shape" d="m5 46h2.051c-.026.331-.051.662-.051 1-.00361019 5.4792879 3.430774 10.3718455 8.585239 12.2303663s10.9208539.2834419 14.414761-3.9373663c3.4094545 4.1185112 8.9938931 5.7277526 14.0721579 4.0551074 5.0782647-1.6726452 8.6132803-6.2855919 8.9078421-11.6241074.0190124-.3510017-.1476638-.6862102-.4390033-.8828951s-.6645536-.2259593-.9829967-.0771049c-.7741135.3615804-1.6792748.3027899-2.4001123-.1558881-.7208375-.4586779-1.157515-1.2537162-1.1578877-2.1081119-.0029862-.3683411.0809532-.7321928.245-1.062.152243-.3040795.1395215-.6646869-.0337709-.9572822s-.4834022-.4770716-.8232291-.4897178c-1.109279-.0468487-2.0537659-.8218982-2.3162209-1.9006994-.262455-1.0788013.2204356-2.2011087 1.1842209-2.7523006.3143999-.1793735.5073235-.5146449.5044196-.8766031-.002904-.3619581-.2011822-.694091-.5184196-.8683969-5.4616964-2.9831571-12.2715-1.6771272-16.242 3.115-3.1393202-3.7992679-8.1597406-5.49249-12.9588119-4.3705797-4.7990712 1.1219104-8.54853326 4.8653255-9.6781881 9.6625797h-2.363c-1.65685425 0-3-1.3431458-3-3v-31h56v31c0 1.6568542-1.3431458 3-3 3-.5522847 0-1 .4477153-1 1s.4477153 1 1 1c2.7600532-.0033061 4.9966939-2.2399468 5-5v-36c-.0033061-2.76005315-2.2399468-4.99669388-5-5h-50c-2.76005315.00330612-4.99669388 2.23994685-5 5v36c.00330612 2.7600532 2.23994685 4.9966939 5 5zm35-10c1.352669-.0000736 2.6938728.2480339 3.957.732-.8999753 1.1480974-1.1868307 2.6615398-.7694001 4.0593362.4174307 1.3977964 1.4872292 2.5060947 2.8694001 2.9726638-.2163423 1.3049303.1523983 2.6389556 1.00822 3.647527.8558217 1.0085713 2.1120382 1.5895302 3.43478 1.588473.108 0 .215 0 .321-.011-1.0516547 5.7202193-6.3745224 9.6332342-12.1479865 8.9303839s-10.0020521-5.7786409-9.650593-11.5841006c.3514591-5.8054598 5.1614911-10.3340576 10.9775795-10.3352833zm-20 0c3.470887-.0017679 6.7365726 1.6440634 8.8 4.435-2.4000655 4.0490647-2.4000655 9.0849353 0 13.134-3.094971 4.146022-8.6620916 5.5727717-13.3696858 3.4264024-4.7075941-2.1463693-7.28137377-7.2848619-6.18104529-12.3403165 1.10032849-5.0554546 5.57691959-8.6594217 10.75073109-8.6550859zm-15-34h50c1.6568542 0 3 1.34314575 3 3v3h-56v-3c0-1.65685425 1.34314575-3 3-3z"/><path id="Shape" d="m6 27c0 2.209139 1.790861 4 4 4h14c2.209139 0 4-1.790861 4-4s-1.790861-4-4-4h-14c-2.209139 0-4 1.790861-4 4zm20 0c0 1.1045695-.8954305 2-2 2h-14c-1.1045695 0-2-.8954305-2-2s.8954305-2 2-2h14c1.1045695 0 2 .8954305 2 2z"/><path id="Shape" d="m36 31h14c2.209139 0 4-1.790861 4-4s-1.790861-4-4-4h-14c-2.209139 0-4 1.790861-4 4s1.790861 4 4 4zm0-6h14c1.1045695 0 2 .8954305 2 2s-.8954305 2-2 2h-14c-1.1045695 0-2-.8954305-2-2s.8954305-2 2-2z"/><path id="Shape" d="m15 15c.5522847 0 1-.4477153 1-1s-.4477153-1-1-1h-4c-.5522847 0-1 .4477153-1 1s.4477153 1 1 1z"/><path id="Shape" d="m49 15c.5522847 0 1-.4477153 1-1s-.4477153-1-1-1h-4c-.5522847 0-1 .4477153-1 1s.4477153 1 1 1z"/><path id="Shape" d="m41 15c.5522847 0 1-.4477153 1-1s-.4477153-1-1-1h-22c-.5522847 0-1 .4477153-1 1s.4477153 1 1 1z"/><path id="Shape" d="m39 19c0-.5522847-.4477153-1-1-1h-16c-.5522847 0-1 .4477153-1 1s.4477153 1 1 1h16c.5522847 0 1-.4477153 1-1z"/><path id="Shape" d="m19 45c1.6568542 0 3-1.3431458 3-3s-1.3431458-3-3-3-3 1.3431458-3 3 1.3431458 3 3 3zm0-4c.5522847 0 1 .4477153 1 1s-.4477153 1-1 1-1-.4477153-1-1 .4477153-1 1-1z"/><path id="Shape" d="m15 52c1.6568542 0 3-1.3431458 3-3s-1.3431458-3-3-3-3 1.3431458-3 3 1.3431458 3 3 3zm0-4c.5522847 0 1 .4477153 1 1s-.4477153 1-1 1-1-.4477153-1-1 .4477153-1 1-1z"/><path id="Shape" d="m39 45c1.6568542 0 3-1.3431458 3-3s-1.3431458-3-3-3-3 1.3431458-3 3 1.3431458 3 3 3zm0-4c.5522847 0 1 .4477153 1 1s-.4477153 1-1 1-1-.4477153-1-1 .4477153-1 1-1z"/><path id="Shape" d="m35 52c1.6568542 0 3-1.3431458 3-3s-1.3431458-3-3-3-3 1.3431458-3 3 1.3431458 3 3 3zm0-4c.5522847 0 1 .4477153 1 1s-.4477153 1-1 1-1-.4477153-1-1 .4477153-1 1-1z"/><path id="Shape" d="m20 52c0 1.6568542 1.3431458 3 3 3s3-1.3431458 3-3-1.3431458-3-3-3-3 1.3431458-3 3zm3-1c.5522847 0 1 .4477153 1 1s-.4477153 1-1 1-1-.4477153-1-1 .4477153-1 1-1z"/><path id="Shape" d="m40 52c0 1.6568542 1.3431458 3 3 3s3-1.3431458 3-3-1.3431458-3-3-3-3 1.3431458-3 3zm3-1c.5522847 0 1 .4477153 1 1s-.4477153 1-1 1-1-.4477153-1-1 .4477153-1 1-1z"/></g></g></g></svg>